<svg viewBox="0 0 32 32" xml:space="preserve" xmlns="http://www.w3.org/2000/svg" enable-background="new 0 0 32 32"><path d="M24 16c-4.4 0-8 3.6-8 8s3.6 8 8 8 8-3.6 8-8-3.6-8-8-8zm3 9h-2v2c0 .6-.4 1-1 1s-1-.4-1-1v-2h-2c-.6 0-1-.4-1-1s.4-1 1-1h2v-2c0-.6.4-1 1-1s1 .4 1 1v2h2c.6 0 1 .4 1 1s-.4 1-1 1z" fill="#2b55a6" class="fill-000000"></path><path d="M29.6 3.8c-.4-.4-1-.4-1.4 0-.4.4-.4 1 0 1.4 1.1 1.1 1.1 2.8 0 3.9-1 1-2.8 1-3.9 0L23 7.8C20.7 4.9 17.1 3 13 3 5.8 3 0 8.8 0 16s5.8 13 13 13c.8 0 1.5-.1 2.2-.2-.8-1.4-1.2-3.1-1.2-4.8 0-5.5 4.5-10 10-10 .6 0 1.3.1 1.9.2-.1-.8-.3-1.6-.6-2.4.3.1.7.1 1 .1 1.3 0 2.5-.5 3.3-1.4 1.9-1.9 1.9-4.9 0-6.7zM5.9 8.9C7 7.7 9 7.7 10.1 8.9c.6.5.9 1.3.9 2.1s-.3 1.6-.9 2.1c-.5.6-1.3.9-2.1.9s-1.6-.3-2.1-.9c-.6-.5-.9-1.3-.9-2.1s.3-1.6.9-2.1zm4.2 14.2c-.5.6-1.3.9-2.1.9s-1.6-.3-2.1-.9c-.6-.5-.9-1.3-.9-2.1s.3-1.6.9-2.1c1.1-1.1 3.1-1.1 4.2 0 .6.6.9 1.3.9 2.1s-.3 1.6-.9 2.1zm5-5c-.5.6-1.3.9-2.1.9s-1.6-.3-2.1-.9c-.6-.5-.9-1.3-.9-2.1s.3-1.6.9-2.1c1.1-1.1 3.1-1.1 4.2 0 .6.6.9 1.3.9 2.1s-.3 1.6-.9 2.1zm5-5c-.5.6-1.3.9-2.1.9s-1.6-.3-2.1-.9c-.6-.5-.9-1.3-.9-2.1s.3-1.6.9-2.1c1.1-1.1 3.1-1.1 4.2 0 .6.5.9 1.3.9 2.1s-.3 1.6-.9 2.1z" fill="#2b55a6" class="fill-000000"></path></svg>