<svg viewBox="0 0 240 240" xmlns="http://www.w3.org/2000/svg"><g fill="none" fill-rule="evenodd"><path d="M0 0h240v240H0z"></path><g transform="translate(20 75)"><path d="M25 25V5a5 5 0 0 1 5-5h160a5 5 0 0 1 5 5v80a5 5 0 0 1-5 5h-20" fill="#e3ffea" stroke="#45f795" stroke-width="10" class="fill-e8f7ff stroke-46aaf7"></path><circle cx="90" cy="65" fill="#e3ffea" r="35" class="fill-ffffff"></circle><rect fill="#e3ffea" height="90" rx="10" stroke="#45f795" stroke-width="10" width="170" x="5" y="20" class="fill-e8f7ff stroke-46aaf7"></rect><circle cx="90" cy="65" fill="#e3ffea" r="30" stroke="#45f795" stroke-width="10" class="fill-ffffff stroke-46aaf7"></circle><path d="M92.36 91v-6.548C99.287 83.308 103 78.54 103 73.137c0-5.658-3.148-9.09-10.199-11.76-5.35-2.162-7.617-3.624-7.617-6.23 0-2.162 1.574-4.45 5.98-4.45 2.509 0 5.016.556 7.524 1.669a1 1 0 0 0 1.366-.635l1.12-3.852a1 1 0 0 0-.6-1.212c-2.82-1.093-5.432-1.678-7.836-1.755V39h-5.162v6.23c-6.358 1.144-10.135 5.34-10.135 10.807 0 5.912 4.28 8.963 10.89 11.379 4.66 1.716 6.863 3.56 6.863 6.42 0 3.052-2.707 5.022-6.673 5.022-2.333 0-5.257-.774-8.774-2.321a1 1 0 0 0-1.365.641l-1.14 4.006a1 1 0 0 0 .582 1.199c3.783 1.555 6.907 2.372 9.375 2.45V91h5.162Z" fill="#45f795" fill-rule="nonzero" stroke="#45f795" stroke-width="3" class="fill-46aaf7 stroke-46aaf7"></path></g></g></svg>