<svg viewBox="0 0 64 64" xml:space="preserve" xmlns="http://www.w3.org/2000/svg"><circle cx="32" cy="32" fill="#32a8a4" r="32" class="fill-77b3d4"></circle><path d="M52 48a4 4 0 0 1-4 4H16a4 4 0 0 1-4-4V18a4 4 0 0 1 4-4h32a4 4 0 0 1 4 4v30z" fill="#231F20" opacity=".2" class="fill-231f20"></path><path d="M12 21.5V46a4 4 0 0 0 4 4h32a4 4 0 0 0 4-4V21.5H12z" fill="#FFFFFF" class="fill-ffffff"></path><path d="M52 18a4 4 0 0 0-4-4H16a4 4 0 0 0-4 4v6h40v-6z" fill="#231F20" opacity=".2" class="fill-231f20"></path><path d="M52 16a4 4 0 0 0-4-4H16a4 4 0 0 0-4 4v6h40v-6z" fill="#6d6d82" class="fill-e0e0d1"></path><circle cx="23" cy="17" fill="#ffde26" r="2" class="fill-e0995e"></circle><circle cx="29" cy="17" fill="#6ee637" r="2" class="fill-76c2af"></circle><circle cx="17" cy="17" fill="#ff6a4c" r="2" class="fill-c75c5c"></circle><path fill="#547bb8" d="M16 28h12v18H16z" class="fill-4f5d73"></path><path fill="#6d6d82" d="M32 28h16v2H32zM32 32h16v2H32zM32 36h16v2H32zM32 40h16v2H32zM32 44h16v2H32z" class="fill-e0e0d1"></path></svg>